<?xml version="1.0" encoding="utf-8"?>
<!-- Generator: Adobe Illustrator 22.1.0, SVG Export Plug-In . SVG Version: 6.00 Build 0)  -->
<svg version="1.1" id="Layer_1" xmlns="http://www.w3.org/2000/svg" xmlns:xlink="http://www.w3.org/1999/xlink" x="0px" y="0px"
	 viewBox="0 0 99.2 99.2" style="enable-background:new 0 0 99.2 99.2;" xml:space="preserve">
<style type="text/css">
	.st0{display:none;}
	.st1{display:inline;}
	.st2{fill:#FFFFFF;}
	.st3{display:inline;fill:#FFFFFF;}
	.st4{display:inline;fill:none;stroke:#FFFFFF;stroke-miterlimit:10;}
</style>
<g class="st0">
	<circle class="st1" cx="50" cy="37.1" r="45"/>
</g>
<g class="st0">
	<g class="st1">
		<g>
			<path class="st2" d="M113.8,29.9c5.5,5.5,11,11,16.5,16.5c1.4,1.4,3.5-0.8,2.1-2.1c-5.5-5.5-11-11-16.5-16.5
				C114.6,26.4,112.4,28.5,113.8,29.9L113.8,29.9z"/>
		</g>
	</g>
	<g class="st1">
		<g>
			<path class="st2" d="M115.9,46.4c5.5-5.5,11-11,16.5-16.5c1.4-1.4-0.8-3.5-2.1-2.1c-5.5,5.5-11,11-16.5,16.5
				C112.4,45.7,114.6,47.8,115.9,46.4L115.9,46.4z"/>
		</g>
	</g>
	<path class="st3" d="M-124.5,34.5l-23.7-13.7c-2-1.2-4.5,0.3-4.5,2.6v27.3c0,2.3,2.5,3.8,4.5,2.6l23.7-13.7
		C-122.5,38.5-122.5,35.7-124.5,34.5z"/>
	<path class="st3" d="M-101.2,34.5l-23.7-13.7c-2-1.2-4.5,0.3-4.5,2.6v27.3c0,2.3,2.5,3.8,4.5,2.6l23.7-13.7
		C-99.2,38.5-99.2,35.7-101.2,34.5z"/>
	<path class="st3" d="M-31.8-22.4l-27.6-15.9c-2-1.2-4.5,0.3-4.5,2.6v31.9c0,2.3,2.5,3.8,4.5,2.6l27.6-15.9
		C-29.8-18.3-29.8-21.2-31.8-22.4z"/>
	<path class="st3" d="M-25.3-0.9h-4.4c-1.6,0-3-1.3-3-3v-31.7c0-1.6,1.3-3,3-3h4.4c1.6,0,3,1.4,3,3v31.7
		C-22.3-2.3-23.7-0.9-25.3-0.9z"/>
	<path class="st3" d="M-59.8,39.3l15.9,14.4c1.9,1.7,5,0.4,5-2.2V22.7c0-2.6-3.1-4-5-2.2l-15.9,14.4C-61.1,36.1-61.1,38.1-59.8,39.3
		z"/>
	<path class="st3" d="M-51.7,45h-8.7c-1.7,0-3-1.3-3-3v-9.8c0-1.7,1.3-3,3-3h8.7c1.7,0,3,1.3,3,3V42C-48.7,43.6-50,45-51.7,45z"/>
	<g class="st1">
		<g>
			<g>
				<path class="st2" d="M-25.4,23.2c7.5,8,7.5,19.7,0,27.7c-1.3,1.4,0.8,3.5,2.1,2.1c8.6-9.2,8.6-22.7,0-32
					C-24.6,19.7-26.7,21.8-25.4,23.2L-25.4,23.2z"/>
			</g>
		</g>
		<g>
			<g>
				<path class="st2" d="M-30.1,27.2c5.4,5.8,5.4,14,0,19.9c-1.3,1.4,0.8,3.5,2.1,2.1c6.5-7,6.5-17.1,0-24.1
					C-29.3,23.6-31.4,25.7-30.1,27.2L-30.1,27.2z"/>
			</g>
		</g>
		<g>
			<g>
				<path class="st2" d="M-34.7,31.1c3.2,3.5,3.3,8.5,0,12c-1.3,1.4,0.8,3.5,2.1,2.1c4.4-4.7,4.4-11.5,0-16.3
					C-33.9,27.5-36,29.7-34.7,31.1L-34.7,31.1z"/>
			</g>
		</g>
	</g>
	<path class="st4" d="M-92,23.4c7.2,0,13,5.8,13,13s-5.8,13-13,13"/>
</g>
<g class="st0">
	<path class="st1" d="M89.1,34.5L30.9,0.9c-2-1.2-4.5,0.3-4.5,2.6v67.2c0,2.3,2.5,3.8,4.5,2.6l58.2-33.6
		C91.1,38.5,91.1,35.7,89.1,34.5z"/>
</g>
<g class="st0">
	<path class="st1" d="M39.7,70.1H24c-1.6,0-3-1.4-3-3v-60c0-1.7,1.4-3,3-3h15.7c1.6,0,3,1.3,3,3v60C42.7,68.7,41.3,70.1,39.7,70.1z"
		/>
	<path class="st1" d="M75.7,70.1H60.1c-1.7,0-3-1.4-3-3v-60c0-1.7,1.3-3,3-3h15.7c1.7,0,3,1.3,3,3v60C78.7,68.7,77.4,70.1,75.7,70.1
		z"/>
</g>
<g class="st0">
	<g class="st1">
		<path d="M66.8,58.6h-8.1c-1.7,0-3-1.3-3-3v-37c0-1.6,1.3-3,3-3h8.1c1.7,0,3,1.4,3,3v37.1C69.8,57.3,68.5,58.6,66.8,58.6z"/>
		<path d="M90.4,58.6h-8.1c-1.7,0-3-1.3-3-3v-37c0-1.6,1.3-3,3-3h8.1c1.7,0,3,1.4,3,3v37.1C93.4,57.3,92,58.6,90.4,58.6z"/>
		<path d="M46,34.5L11.1,14.4c-2-1.2-4.5,0.3-4.5,2.6v40.3c0,2.3,2.5,3.8,4.5,2.6L46,39.7C48,38.5,48,35.7,46,34.5z"/>
	</g>
</g>
<g class="st0">
	<path class="st1" d="M77.7,67.8H22.3c-1.7,0-3-1.3-3-3V9.4c0-1.7,1.3-3,3-3h55.4c1.7,0,3,1.3,3,3v55.4
		C80.7,66.5,79.4,67.8,77.7,67.8z"/>
</g>
<g class="st0">
	<circle class="st1" cx="50" cy="37.1" r="33.5"/>
</g>
<g class="st0">
	<path class="st1" d="M92.7,33.1L55.9,11.8c-3.1-1.8-7,0.4-7,4v12.8L19.7,11.8c-3.1-1.8-7,0.4-7,4v42.4c0,3.6,3.9,5.8,7,4l29.2-16.9
		v12.8c0,3.6,3.9,5.8,7,4l36.8-21C95.8,39.3,95.8,34.9,92.7,33.1z"/>
</g>
<g class="st0">
	<path class="st1" d="M7.3,41.1l36.8,21.2c3.1,1.8,7-0.4,7-4V45.5l29.2,16.9c3.1,1.8,7-0.4,7-4V15.9c0-3.6-3.9-5.8-7-4L51.1,28.7
		V15.9c0-3.6-3.9-5.8-7-4L7.3,33.1C4.2,34.9,4.2,39.3,7.3,41.1z"/>
</g>
<g class="st0">
	<path class="st1" d="M74.5,7.8h-0.6c-2.6,0-4.7,2.1-4.7,4.7v19.8l-41.4-24c-3.1-1.8-7,0.4-7,4v49.5c0,3.6,3.9,5.8,7,4l41.5-23.9
		v19.8c0,2.6,2.1,4.7,4.7,4.7h0.6c2.6,0,4.7-2.1,4.7-4.7V12.5C79.2,9.9,77.1,7.8,74.5,7.8z"/>
</g>
<g class="st0">
	<path class="st1" d="M25.5,66.4h0.6c2.6,0,4.7-2.1,4.7-4.7V41.9l41.5,23.9c3.1,1.8,7-0.4,7-4V12.4c0-3.6-3.9-5.8-7-4L30.7,32.3
		V12.5c0-2.6-2.1-4.7-4.7-4.7h-0.6c-2.6,0-4.7,2.1-4.7,4.7v49.3C20.8,64.3,22.9,66.4,25.5,66.4z"/>
</g>
<g class="st0">
	<path class="st1" d="M91.8,39.7L44,67.3c-2,1.2-4.5-0.3-4.5-2.6V9.5c0-2.3,2.5-3.8,4.5-2.6l47.8,27.6
		C93.8,35.7,93.8,38.5,91.8,39.7z M32.2,63.4V10.8c0-1.6-1.4-3-3-3h-3.9c-1.6,0-3,1.4-3,3v52.6c0,1.7,1.4,3,3,3h3.9
		C30.9,66.4,32.2,65,32.2,63.4z"/>
</g>
<g class="st0">
	<path class="st1" d="M8.9,34.5L56.7,6.9c2-1.2,4.5,0.3,4.5,2.6v55.2c0,2.3-2.5,3.8-4.5,2.6L8.9,39.7C6.9,38.5,6.9,35.7,8.9,34.5z
		 M68.6,10.8v52.6c0,1.7,1.4,3,3,3h3.9c1.6,0,3-1.3,3-3V10.8c0-1.6-1.4-3-3-3h-3.9C69.9,7.8,68.6,9.2,68.6,10.8z"/>
</g>
<g class="st0">
	<path class="st1" d="M52.8,11.1v52c0,4.7-5.6,7.2-9.1,4L26.3,51.3H12c-3,0-5.4-2.4-5.4-5.4V28.3c0-3,2.4-5.4,5.4-5.4h14.3L43.7,7.1
		C47.2,3.9,52.8,6.4,52.8,11.1z M77.1,12.1c13.5,14.5,13.5,35.6,0,50.1c-2.4,2.5,1.4,6.4,3.8,3.8c15.6-16.7,15.6-41.1,0-57.8
		C78.5,5.7,74.7,9.5,77.1,12.1L77.1,12.1z M68.6,19.1c9.7,10.4,9.7,25.5,0,35.9c-2.4,2.6,1.5,6.4,3.8,3.8c11.7-12.6,11.7-31,0-43.6
		C70.1,12.7,66.3,16.6,68.6,19.1L68.6,19.1z M60.2,26.2c5.9,6.4,5.9,15.4,0,21.7c-2.4,2.6,1.5,6.4,3.8,3.8c7.9-8.6,7.9-20.8,0-29.4
		C61.7,19.8,57.8,23.7,60.2,26.2L60.2,26.2z"/>
</g>
<g class="st0">
	<path class="st1" d="M62.5,11.1v52c0,4.7-5.6,7.2-9.1,4L36,51.3H21.7c-3,0-5.4-2.4-5.4-5.4V28.3c0-3,2.4-5.4,5.4-5.4H36L53.5,7.1
		C57,3.9,62.5,6.4,62.5,11.1z M69.9,26.2c5.9,6.4,5.9,15.4,0,21.7c-2.4,2.6,1.5,6.4,3.8,3.8c7.9-8.6,7.9-20.8,0-29.4
		C71.4,19.8,67.6,23.7,69.9,26.2L69.9,26.2z"/>
</g>
<g class="st0">
	<path class="st1" d="M54.3,11.1v52c0,4.7-5.6,7.2-9.1,4L27.8,51.3H13.5c-3,0-5.4-2.4-5.4-5.4V28.3c0-3,2.4-5.4,5.4-5.4h14.3
		L45.3,7.1C48.8,3.9,54.3,6.4,54.3,11.1z"/>
	<path class="st1" d="M90.4,46.7c-3.7-3.7-5.9-5.9-9.6-9.6c3.7-3.7,5.9-5.9,9.6-9.6c2.1-2.1-1.2-5.4-3.3-3.3
		c-3.7,3.7-5.9,5.9-9.6,9.6c-3.7-3.7-5.9-5.9-9.6-9.6c-2.1-2.1-5.4,1.2-3.3,3.3c3.7,3.7,5.9,5.9,9.6,9.6c-3.7,3.7-5.9,5.9-9.6,9.6
		c-2.1,2.1,1.2,5.4,3.3,3.3c3.7-3.7,5.9-5.9,9.6-9.6c3.7,3.7,5.9,5.9,9.6,9.6C89.2,52.1,92.5,48.8,90.4,46.7z"/>
</g>
<g class="st0">
	<path class="st1" d="M85.1,30.5c-9.5,0-19,0-28.5,0c0-9.5,0-19,0-28.5c0-8.5-13.1-8.5-13.1,0c0,9.5,0,19,0,28.5c-9.5,0-19,0-28.5,0
		c-8.5,0-8.5,13.1,0,13.1c9.5,0,19,0,28.5,0c0,9.5,0,19,0,28.5c0,8.5,13.1,8.5,13.1,0c0-9.5,0-19,0-28.5c9.5,0,19,0,28.5,0
		C93.5,43.7,93.5,30.5,85.1,30.5z"/>
</g>
<g class="st0">
	<g class="st1">
		<path d="M14.9,43.7c23.4,0,46.8,0,70.1,0c8.5,0,8.5-13.1,0-13.1c-23.4,0-46.8,0-70.1,0C6.5,30.5,6.5,43.7,14.9,43.7L14.9,43.7z"/>
	</g>
</g>
<g>
	<path d="M95.8,81.4C85.3,70.7,74.8,60.1,64.2,49.6C74.8,39.1,85.3,28.5,96,17.9c9.4-9.4-5.2-24-14.6-14.6
		C70.7,13.9,60.1,24.5,49.6,35C39.1,24.5,28.5,13.9,17.9,3.4C8.4-6-6.2,8.6,3.2,18C13.9,28.5,24.5,39.1,35,49.6
		C24.5,60.1,13.9,70.7,3.4,81.4C-6,90.8,8.6,105.4,18,96c10.5-10.7,21.1-21.2,31.6-31.7C60.1,74.8,70.7,85.3,81.4,96
		C90.6,105.2,105.2,90.6,95.8,81.4z"/>
</g>
</svg>
