<?xml version="1.0" encoding="utf-8"?>
<svg version="1.1" id="Layer_1" xmlns="http://www.w3.org/2000/svg" xmlns:xlink="http://www.w3.org/1999/xlink" x="0px" y="0px"
	 viewBox="0 0 99.2 99.2" style="enable-background:new 0 0 99.2 99.2;" xml:space="preserve">
	<path fill="#FFFFFF" d="M90.5,30.4H8.7c-4.7,0-8.6-3.8-8.6-8.6l0,0c0-4.7,3.8-8.6,8.6-8.6h81.8c4.7,0,8.6,3.8,8.6,8.6l0,0
		C99.1,26.5,95.3,30.4,90.5,30.4z"/>
	<path fill="#FFFFFF" d="M76.4,58.2H8.7c-4.7,0-8.6-3.8-8.6-8.6l0,0c0-4.7,3.8-8.6,8.6-8.6h67.7c4.7,0,8.6,3.8,8.6,8.6l0,0
		C85,54.3,81.1,58.2,76.4,58.2z"/>
	<path fill="#FFFFFF" d="M90.5,86H8.7c-4.7,0-8.6-3.8-8.6-8.6l0,0c0-4.7,3.8-8.6,8.6-8.6h81.8c4.7,0,8.6,3.8,8.6,8.6l0,0
		C99.1,82.1,95.3,86,90.5,86z"/>
</svg>